<?xml version="1.0" standalone="no"?>
<!DOCTYPE svg PUBLIC "-//W3C//DTD SVG 20010904//EN"
 "http://www.w3.org/TR/2001/REC-SVG-20010904/DTD/svg10.dtd">
<svg version="1.0" xmlns="http://www.w3.org/2000/svg"
 width="120" height="120" viewBox="0 0 285.000000 299.000000"
 preserveAspectRatio="xMidYMid meet">

<defs>
  <!-- Gradiente azul para manter consistência com o tema -->
  <linearGradient id="blueGradient" x1="0%" y1="0%" x2="100%" y2="100%">
    <stop offset="0%" style="stop-color:#1e40af;stop-opacity:1" />
    <stop offset="50%" style="stop-color:#3b82f6;stop-opacity:1" />
    <stop offset="100%" style="stop-color:#60a5fa;stop-opacity:1" />
  </linearGradient>
  
  <!-- Sombra -->
  <filter id="shadow" x="-50%" y="-50%" width="200%" height="200%">
    <feDropShadow dx="2" dy="4" stdDeviation="3" flood-color="#1e40af" flood-opacity="0.3"/>
  </filter>
</defs>

<g transform="translate(0.000000,299.000000) scale(0.100000,-0.100000)"
fill="url(#blueGradient)" stroke="none" filter="url(#shadow)">
<path d="M1283 2931 c-36 -23 -63 -63 -63 -94 0 -30 70 -97 101 -97 30 0 99
72 99 102 0 24 -59 90 -91 101 -9 3 -30 -3 -46 -12z"/>
<path d="M1453 2755 c-68 -70 -70 -97 -12 -160 46 -50 97 -72 127 -56 11 6 38
32 61 57 56 64 56 96 -1 151 -83 80 -105 81 -175 8z"/>
<path d="M683 2328 c-298 -298 -453 -460 -453 -473 0 -13 174 -194 513 -533
394 -394 518 -512 536 -512 18 0 63 38 168 142 122 121 143 147 143 173 0 26
-42 72 -340 370 -221 221 -340 347 -340 360 0 13 97 117 275 295 240 240 275
279 275 305 0 26 -22 52 -148 178 -82 81 -155 147 -162 147 -8 0 -218 -204
-467 -452z"/>
<path d="M1493 2287 c-235 -234 -273 -276 -273 -302 0 -26 46 -75 340 -370
211 -211 340 -348 340 -360 0 -12 -106 -126 -276 -296 -228 -228 -276 -282
-276 -304 0 -23 32 -60 169 -196 100 -101 177 -169 188 -169 19 0 764 733 786
772 17 31 -13 68 -189 239 -93 90 -174 174 -181 187 -15 29 -4 51 61 119 71
72 69 86 -28 184 -55 56 -86 79 -103 79 -16 0 -45 -20 -87 -60 -83 -80 -96
-79 -186 8 -89 85 -104 112 -84 150 8 15 85 97 170 182 119 118 156 161 156
180 0 35 -194 230 -230 230 -18 0 -90 -66 -297 -273z"/>
<path d="M1142 1934 c-30 -21 -55 -71 -48 -98 3 -11 142 -155 310 -318 167
-164 310 -311 318 -328 7 -16 16 -30 19 -30 15 0 69 72 69 93 0 16 -89 111
-311 332 -171 171 -316 322 -323 337 -11 26 -13 27 -34 12z"/>
<path d="M116 1766 c-42 -41 -56 -61 -56 -83 0 -24 76 -104 509 -537 422 -422
513 -508 536 -508 34 0 157 115 128 121 -21 4 -680 642 -861 834 -73 77 -147
160 -164 184 -17 24 -32 43 -33 43 -1 0 -28 -24 -59 -54z"/>
<path d="M2531 1018 c-17 -42 -744 -765 -787 -784 -60 -26 -87 -8 -266 174
-91 92 -168 178 -172 190 -4 12 -10 22 -14 22 -17 -1 -45 -56 -50 -97 l-5 -44
194 -195 c107 -108 206 -202 221 -210 34 -18 72 -18 106 0 15 8 208 196 430
418 l402 404 0 48 c0 44 -22 106 -38 106 -4 0 -13 -15 -21 -32z"/>
</g>
</svg>